<?xml version="1.0" standalone="no"?>
<svg
  width="600"
  height="600"
  viewBox="0 0 600 600"
  xmlns="http://www.w3.org/2000/svg"
>
  <g transform="translate(300,300)">
    <path d="M113,-104.2C161.8,-93.8,227.1,-72.7,247.1,-32.7C267.2,7.3,241.8,66.1,197.2,86.2C152.7,106.2,88.8,87.4,40.6,99.8C-7.5,112.1,-40,155.7,-69.9,159.1C-99.7,162.5,-126.9,125.7,-145.9,87.1C-164.8,48.4,-175.5,7.8,-168.3,-29.1C-161.2,-66.1,-136.2,-99.3,-105.2,-112.8C-74.1,-126.4,-37.1,-120.2,-2.5,-117.2C32.1,-114.3,64.3,-114.6,113,-104.2Z" fill="#ffbd42" />
  </g>
</svg>
  