<?xml version="1.0" standalone="no"?>
<svg
  width="600"
  height="600"
  viewBox="0 0 600 600"
  xmlns="http://www.w3.org/2000/svg"
>
  <g transform="translate(300,300)">
    <path d="M177.8,-211.9C227,-170.6,261.2,-111.3,272.4,-48C283.6,15.3,271.7,82.6,239.5,138.3C207.4,194,155,237.9,94.6,259.9C34.2,281.9,-34.2,281.9,-94.6,259.9C-155,237.9,-207.4,194,-239.5,138.3C-271.7,82.6,-283.6,15.3,-272.4,-48C-261.2,-111.3,-227,-170.6,-177.8,-211.9C-128.6,-253.2,-64.3,-276.6,0,-276.6C64.3,-276.6,128.6,-253.2,177.8,-211.9Z" fill="#73c5ef" />
  </g>
</svg>
  