<?xml version="1.0" standalone="no"?>
<svg
  width="600"
  height="600"
  viewBox="0 0 600 600"
  xmlns="http://www.w3.org/2000/svg"
>
  <g transform="translate(300,300)">
    <path d="M98.2,-128.9C128.7,-113.1,155.6,-86.2,162.1,-55.3C168.7,-24.3,154.7,10.7,133.1,32.7C111.5,54.8,82.2,63.8,58.7,84.3C35.3,104.9,17.6,136.9,-8,148C-33.7,159.1,-67.4,149.1,-95.9,130.2C-124.5,111.3,-147.8,83.5,-159.2,51.1C-170.6,18.7,-169.9,-18.1,-150,-39.3C-130.1,-60.4,-90.9,-65.8,-62.7,-82.3C-34.5,-98.8,-17.2,-126.4,8.3,-137.9C33.9,-149.3,67.8,-144.6,98.2,-128.9Z" fill="#ff7276" />
  </g>
</svg>
  